<svg xmlns="http://www.w3.org/2000/svg" viewBox="0 0 1024 1024">
  <!-- Transparent variant for the Android adaptive icon and splash: same
       artwork as icon.svg, scaled into the central safe zone so circular
       masks don't clip it. -->
  <g transform="translate(512,512) scale(0.72) translate(-512,-512)">
    <defs>
      <clipPath id="bowl">
        <polygon points="272,320 752,320 512,620"/>
      </clipPath>
    </defs>
    <g clip-path="url(#bowl)">
      <!-- vertical rainbow stripes, red at the left -->
      <rect x="272" y="308" width="80" height="320" fill="#e40303"/>
      <rect x="352" y="308" width="80" height="320" fill="#ff8c00"/>
      <rect x="432" y="308" width="80" height="320" fill="#ffed00"/>
      <rect x="512" y="308" width="80" height="320" fill="#008026"/>
      <rect x="592" y="308" width="80" height="320" fill="#24408e"/>
      <rect x="672" y="308" width="80" height="320" fill="#732982"/>
      <!-- progress chevron pointing up: black outermost on top, then brown,
           light blue, pink, white innermost at the bowl's tip -->
      <polygon points="512,390 290,545 290,700 734,700 734,545" fill="#000000"/>
      <polygon points="512,430 290,585 290,700 734,700 734,585" fill="#784f17"/>
      <polygon points="512,470 290,625 290,700 734,700 734,625" fill="#5bcefa"/>
      <polygon points="512,510 290,665 290,700 734,700 734,665" fill="#f5a9b8"/>
      <polygon points="512,550 290,705 290,740 734,740 734,705" fill="#ffffff"/>
    </g>

    <g transform="translate(610,470) rotate(18)" fill="#e0218a">
      <rect x="-3"  y="-130" width="6"  height="130"/>
      <rect x="-27" y="-180" width="54" height="60"/>
      <rect x="-19" y="-240" width="38" height="60"/>
      <rect x="-11" y="-290" width="22" height="50"/>
      <rect x="-6"  y="-315" width="12" height="25"/>
      <rect x="-3"  y="-370" width="6"  height="55"/>
    </g>

    <!-- glass -->
    <g stroke="#f5f5f7" stroke-width="16" stroke-linecap="round"
       stroke-linejoin="round" fill="none">
      <polyline points="272,320 512,620 752,320"/>
      <line x1="272" y1="320" x2="752" y2="320"/>
      <line x1="512" y1="620" x2="512" y2="800"/>
      <line x1="396" y1="812" x2="628" y2="812"/>
    </g>
  </g>
</svg>
